<?xml version="1.0" standalone="no"?>
<!DOCTYPE svg PUBLIC "-//W3C//DTD SVG 20010904//EN"
 "http://www.w3.org/TR/2001/REC-SVG-20010904/DTD/svg10.dtd">
<svg version="1.0" xmlns="http://www.w3.org/2000/svg"
 width="260.000000pt" height="260.000000pt" viewBox="0 0 260.000000 260.000000"
 preserveAspectRatio="xMidYMid meet">
<metadata>
Created by potrace 1.11, written by Peter Selinger 2001-2013
</metadata>
<g transform="translate(0.000000,260.000000) scale(0.100000,-0.100000)"
fill="#000000" stroke="none">
<path d="M1041 2260 c-158 -41 -273 -79 -292 -99 -39 -38 -208 -524 -277 -796
-64 -250 -85 -393 -86 -584 l-1 -163 33 -28 c54 -44 239 -136 353 -174 139
-47 257 -66 404 -66 208 0 362 37 552 132 l103 51 47 -18 c27 -10 69 -31 96
-47 49 -31 117 -103 117 -123 0 -19 37 -47 56 -43 38 7 41 35 10 93 -50 95
-169 182 -299 217 -40 10 -51 10 -70 -2 -133 -83 -319 -152 -462 -171 -261
-34 -568 37 -811 189 -37 23 -43 31 -48 74 -16 116 24 392 95 668 64 246 219
695 252 726 33 32 321 107 410 108 66 0 68 0 112 -44 46 -45 105 -147 105
-181 0 -20 -39 -50 -102 -79 -59 -27 -79 -25 -124 11 -136 110 -294 108 -339
-3 -36 -90 -29 -360 15 -593 11 -55 26 -156 35 -224 22 -179 32 -185 140 -82
112 106 204 132 339 94 65 -18 134 -76 168 -140 25 -49 49 -42 122 32 46 47
84 75 142 102 77 37 82 38 189 38 61 0 124 -4 140 -8 42 -11 70 11 61 46 -8
35 -62 49 -186 50 -145 1 -253 -37 -364 -128 l-56 -45 -40 44 c-61 66 -143 99
-260 104 -112 5 -173 -14 -256 -77 l-52 -39 -12 81 c-6 45 -20 128 -31 185
-32 173 -43 410 -23 509 12 60 80 70 159 23 28 -17 66 -42 85 -56 30 -22 43
-25 96 -22 49 3 75 12 138 48 97 56 113 81 97 156 -14 60 -67 152 -119 208
-80 84 -169 95 -361 46z"/>
</g>
</svg>
